<?xml version="1.0" ?>
<!DOCTYPE svg  PUBLIC '-//W3C//DTD SVG 1.1//EN'  'http://www.w3.org/Graphics/SVG/1.1/DTD/svg11.dtd'>
<!-- Uploaded to: SVG Repo, www.svgrepo.com, Generator: SVG Repo Mixer Tools -->
<svg fill="#000000" width="800px" height="800px" viewBox="0 0 32 32" style="fill-rule:evenodd;clip-rule:evenodd;stroke-linejoin:round;stroke-miterlimit:2;" version="1.1" xml:space="preserve" xmlns="http://www.w3.org/2000/svg" xmlns:serif="http://www.serif.com/" xmlns:xlink="http://www.w3.org/1999/xlink">
<g id="Icon">
<path d="M15.998,2c-7.727,0 -14,6.273 -14,14c-0,7.727 6.273,14 14,14c7.727,0 14,-6.273 14,-14c-0,-7.727 -6.273,-14 -14,-14Zm-0,2c6.623,0 12,5.377 12,12c-0,6.623 -5.377,12 -12,12c-6.623,0 -12,-5.377 -12,-12c-0,-6.623 5.377,-12 12,-12Z"/>
<path d="M12,11l0,9.988c-0,0.552 0.448,1 1,1c0.552,-0 1,-0.448 1,-1l0,-9.988c-0,-0.552 -0.448,-1 -1,-1c-0.552,0 -1,0.448 -1,1Z"/>
<path d="M18.006,11l0,9.988c0,0.552 0.448,1 1,1c0.552,-0 1,-0.448 1,-1l0,-9.988c0,-0.552 -0.448,-1 -1,-1c-0.552,-0 -1,0.448 -1,1Z"/>
</g>
</svg>