<svg width="18" height="18" viewBox="0 0 18 18" fill="White" xmlns="http://www.w3.org/2000/svg">
<path d="M7.308 12.5C7.45 12.5 7.569 12.452 7.665 12.356C7.761 12.26 7.80867 12.1413 7.808 12V6C7.808 5.858 7.76 5.73933 7.664 5.644C7.568 5.54867 7.449 5.50067 7.307 5.5C7.165 5.49933 7.04633 5.54733 6.951 5.644C6.85567 5.74067 6.808 5.85933 6.808 6V12C6.808 12.142 6.856 12.2607 6.952 12.356C7.048 12.452 7.16667 12.5 7.308 12.5ZM10.693 12.5C10.835 12.5 10.9537 12.452 11.049 12.356C11.1443 12.26 11.192 12.1413 11.192 12V6C11.192 5.858 11.144 5.73933 11.048 5.644C10.952 5.548 10.8333 5.5 10.692 5.5C10.55 5.5 10.431 5.548 10.335 5.644C10.239 5.74 10.1913 5.85867 10.192 6V12C10.192 12.142 10.24 12.2607 10.336 12.356C10.432 12.4513 10.551 12.4993 10.693 12.5ZM9.003 18C7.759 18 6.589 17.764 5.493 17.292C4.39767 16.8193 3.44467 16.178 2.634 15.368C1.82333 14.558 1.18167 13.606 0.709 12.512C0.236333 11.418 0 10.2483 0 9.003C0 7.75767 0.236333 6.58767 0.709 5.493C1.181 4.39767 1.82133 3.44467 2.63 2.634C3.43867 1.82333 4.391 1.18167 5.487 0.709C6.583 0.236333 7.753 0 8.997 0C10.241 0 11.411 0.236333 12.507 0.709C13.6023 1.181 14.5553 1.82167 15.366 2.631C16.1767 3.44033 16.8183 4.39267 17.291 5.488C17.7637 6.58333 18 7.753 18 8.997C18 10.241 17.764 11.411 17.292 12.507C16.82 13.603 16.1787 14.556 15.368 15.366C14.5573 16.176 13.6053 16.8177 12.512 17.291C11.4187 17.7643 10.249 18.0007 9.003 18ZM9 17C11.2333 17 13.125 16.225 14.675 14.675C16.225 13.125 17 11.2333 17 9C17 6.76667 16.225 4.875 14.675 3.325C13.125 1.775 11.2333 1 9 1C6.76667 1 4.875 1.775 3.325 3.325C1.775 4.875 1 6.76667 1 9C1 11.2333 1.775 13.125 3.325 14.675C4.875 16.225 6.76667 17 9 17Z" fill="white"/>
</svg>
