<?xml version="1.0" standalone="no"?>
<!DOCTYPE svg PUBLIC "-//W3C//DTD SVG 20010904//EN"
 "http://www.w3.org/TR/2001/REC-SVG-20010904/DTD/svg10.dtd">
<svg version="1.0" xmlns="http://www.w3.org/2000/svg"
 width="339.000000pt" height="391.000000pt" viewBox="0 0 339.000000 391.000000"
 preserveAspectRatio="xMidYMid meet">
<metadata>
Created by potrace 1.10, written by Peter Selinger 2001-2011
</metadata>
<g transform="translate(0.000000,391.000000) scale(0.100000,-0.100000)"
fill="#000000" stroke="none">
<path d="M0 1955 l0 -1955 1695 0 1695 0 0 1955 0 1955 -1695 0 -1695 0 0
-1955z m1465 1030 c78 -21 143 -57 214 -121 129 -117 142 -271 36 -449 -67
-114 -152 -165 -275 -165 -90 0 -151 23 -200 76 -52 57 -70 99 -77 184 -7 87
7 129 64 185 77 78 171 113 224 85 47 -25 80 -143 60 -216 -12 -46 -53 -89
-75 -81 -19 7 -12 32 17 64 15 17 20 36 19 72 -1 64 -24 101 -64 101 -59 0
-159 -75 -173 -130 -7 -29 38 -110 106 -191 l41 -49 71 0 c89 0 142 24 184 83
70 97 92 178 72 260 -18 75 -92 147 -174 169 -85 23 -180 29 -255 18 -86 -13
-234 -88 -306 -155 -58 -54 -140 -182 -174 -272 -59 -157 -64 -392 -13 -548
23 -69 105 -149 210 -203 82 -43 213 -96 213 -87 0 20 -56 145 -76 173 -29 38
-27 47 10 38 45 -11 87 -72 131 -188 28 -75 48 -65 69 35 45 212 134 414 216
491 43 40 55 46 94 46 33 0 52 -6 75 -26 44 -37 106 -172 128 -276 11 -55 22
-88 30 -88 16 0 17 -22 3 -36 -7 -7 -9 -85 -8 -214 l3 -203 58 149 c145 368
307 628 441 705 112 64 187 21 165 -95 -11 -61 -36 -117 -98 -219 -188 -313
-294 -669 -262 -877 23 -148 79 -196 154 -130 43 38 52 38 32 1 -19 -38 -74
-71 -118 -71 -77 0 -126 79 -134 215 -10 149 39 344 169 685 98 256 148 401
148 428 0 97 -152 -55 -298 -297 -113 -188 -180 -344 -213 -494 -11 -48 -25
-97 -32 -107 -15 -25 -43 -26 -55 -3 -5 10 -12 106 -15 213 -4 107 -9 205 -13
217 -6 22 -7 22 -48 -11 -22 -18 -56 -43 -74 -55 -44 -31 -214 -90 -279 -98
l-52 -6 -7 -44 c-4 -25 -4 -74 0 -109 8 -74 -7 -144 -30 -144 -21 0 -31 30
-62 179 l-27 134 -85 29 c-361 120 -502 305 -502 658 0 301 157 589 388 708
45 23 106 48 135 56 72 20 220 20 294 1z"/>
<path d="M1563 2114 c-62 -67 -127 -221 -173 -414 -27 -116 -28 -114 23 -108
109 13 387 146 387 186 0 9 -9 55 -19 102 -54 241 -132 325 -218 234z"/>
</g>
</svg>
